<?xml version="1.0" encoding="UTF-8"?>
<svg width="64px" height="83px" viewBox="0 0 64 83" version="1.1" xmlns="http://www.w3.org/2000/svg" xmlns:xlink="http://www.w3.org/1999/xlink">
    <!-- Generator: Sketch 56.3 (81716) - https://sketch.com -->
    <title>Icon/14 Medal</title>
    <desc>Created with Sketch.</desc>
    <defs>
        <path d="M73.1080448,92.3441032 C72.8383973,92.2832113 72.5780071,92.2276053 72.3283973,92.1771182 C72.1405688,92.7359074 71.9546119,93.3372539 71.7784324,93.9702611 C71.3003923,95.6878439 70.961487,97.3956831 70.8219114,99 L67.3581201,98.6986502 C67.5182115,96.858519 67.8974815,94.9472714 68.4288709,93.0380063 C68.6783097,92.1417805 68.9455308,91.3036017 69.2134501,90.5447374 C69.3762954,90.0834886 69.5053005,89.7461218 69.5834774,89.5544187 L70.092952,88.3051001 L71.4296252,88.4885834 C71.565148,88.5071864 71.8016916,88.5438457 72.1251325,88.6005189 C72.6546084,88.6932933 73.2421947,88.8099726 73.8739097,88.9526268 C75.6819271,89.3609142 77.4920047,89.8978954 79.1957692,90.5843834 C79.6295065,90.7591467 80.0517624,90.9420155 80.461497,91.1333022 L78.9906894,94.2837603 C78.6387401,94.119451 78.2735527,93.9612972 77.8963645,93.8093189 C76.3832538,93.1996499 74.7466793,92.7141405 73.1080448,92.3441032 Z M65.6506671,94.367941 L62.6396141,96.1063946 L54.0738578,81.2702519 L57.0849108,79.5317982 L65.6506671,94.367941 Z M80.5759539,85.7508069 L77.5648816,87.489227 L69.5332998,73.5779331 L72.5443721,71.8395129 L80.5759539,85.7508069 Z M25.9573851,93.9702611 C25.7812057,93.3372539 25.5952488,92.7359074 25.4074202,92.1771182 C25.1578104,92.2276053 24.8974202,92.2832113 24.6277728,92.3441032 C22.9891382,92.7141405 21.3525637,93.1996499 19.839453,93.8093189 C19.4622648,93.9612972 19.0970774,94.119451 18.7451282,94.2837603 L17.2743205,91.1333022 C17.6840551,90.9420155 18.1063111,90.7591467 18.5400484,90.5843834 C20.2438129,89.8978954 22.0538904,89.3609142 23.8619079,88.9526268 C24.4936229,88.8099726 25.0812092,88.6932933 25.6106851,88.6005189 C25.9341259,88.5438457 26.1706696,88.5071864 26.3061923,88.4885834 L27.6428656,88.3051001 L28.1523401,89.5544187 C28.230517,89.7461218 28.3595222,90.0834886 28.5223675,90.5447374 C28.7902867,91.3036017 29.0575078,92.1417805 29.3069467,93.0380063 C29.8383361,94.9472714 30.217606,96.858519 30.3776974,98.6986502 L26.9139062,99 C26.7743306,97.3956831 26.4354253,95.6878439 25.9573851,93.9702611 Z M35.0962745,96.1063812 L32.0852059,94.3679544 L40.6591803,79.517272 L43.6702488,81.2556988 L35.0962745,96.1063812 Z M20.1710525,87.4892443 L17.16,85.7507896 L25.2326722,71.7686939 L28.2437246,73.5071485 L20.1710525,87.4892443 Z M47.0241218,31.9218156 L50.5009971,31.9218156 L50.5009971,39.8825956 L47.0241218,39.8825956 L47.0241218,31.9218156 Z M59.8907642,44.8761306 L57.1618769,42.7216387 L61.8449117,36.7900895 L64.5737991,38.9445814 L59.8907642,44.8761306 Z M40.2771401,42.744194 L37.5132349,44.8535753 L32.9863433,38.9220261 L35.7502485,36.8126448 L40.2771401,42.744194 Z M79.3487574,47.1547646 C79.3487574,63.9886055 65.7019886,77.6355817 48.8679404,77.6355817 C32.0338922,77.6355817 18.3871233,63.9886055 18.3871233,47.1547646 C18.3871233,30.320504 32.0336797,16.6739476 48.8679404,16.6739476 C65.702201,16.6739476 79.3487574,30.320504 79.3487574,47.1547646 Z M75.8718822,47.1547646 C75.8718822,32.2407292 63.7819759,20.1508228 48.8679404,20.1508228 C33.9539049,20.1508228 21.8639986,32.2407292 21.8639986,47.1547646 C21.8639986,62.0683922 33.9541292,74.1587064 48.8679404,74.1587064 C63.7817516,74.1587064 75.8718822,62.0683922 75.8718822,47.1547646 Z" id="path-1"></path>
    </defs>
    <g id="Skisse" stroke="none" stroke-width="1" fill="none" fill-rule="evenodd">
        <g id="Knowit-Academy-startside" transform="translate(-663.000000, -182.000000)">
            <g id="Icon/01-Standard/14-Medal" transform="translate(646.000000, 166.000000)">
                <mask id="mask-2" fill="white">
                    <use xlink:href="#path-1"></use>
                </mask>
                <use id="Medal" fill="#333333" fill-rule="nonzero" xlink:href="#path-1"></use>
            </g>
        </g>
    </g>
</svg>